{"title":"The.First.Of.The.Few.1942.DVDRiP.XViD.avi-Zen_Bud","uid":7214978,"size":1369006964,"categoryP":"video","categoryS":"movies","magnet":"?xt=urn:btih:e047dc6b25e1f7b6744f204f2f333e562108e50b&amp;dn=The.First.Of.The.Few.1942.DVDRiP.XViD.avi-Zen_Bud&amp;tr=udp%3A%2F%2Ftracker.openbittorrent.com%3A80&amp;tr=udp%3A%2F%2Fopen.demonii.com%3A1337&amp;tr=udp%3A%2F%2Ftracker.coppersurfer.tk%3A6969&amp;tr=udp%3A%2F%2Fexodus.desync.com%3A6969","seeders":1,"leechers":0,"uploader":"Zen_Bud","files":-1,"time":1335353552,"description":"\n     The.First.Of.The.Few.1942.DVDRiP.XViD.avi-Zen_Bud\n\t \nFormat                                   : AVI\nFormat/Info                              : Audio Video Interleave\nFile size                                : 1.27 GiB\nDuration                                 : 1h 45mn\nOverall bit rate                         : 1 723 Kbps\n\nVideo\nID                                       : 0\nFormat                                   : MPEG-4 Visual\nFormat profile                           : Simple@L3\nFormat settings, BVOP                    : No\nFormat settings, QPel                    : No\nFormat settings, GMC                     : No warppoints\nFormat settings, Matrix                  : Default (H.263)\nCodec ID                                 : XVID\nCodec ID/Hint                            : XviD\nDuration                                 : 1h 45mn\nSource duration                          : 1h 45mn\nBit rate                                 : 1 583 Kbps\nWidth                                    : 692 pixels\nHeight                                   : 572 pixels\nDisplay aspect ratio                     : 1.290\nFrame rate                               : 25.000 fps\nColor space                              : YUV\nChroma subsampling                       : 4:2:0\nBit depth                                : 8 bits\nScan type                                : Progressive\nCompression mode                         : Lossy\nBits/(Pixel*Frame)                       : 0.160\nStream size                              : 1.17 GiB (92%)\nWriting library                          : XviD 1.1.2 (UTC 2006-11-01)\n\nAudio\nID                                       : 1\nFormat                                   : MPEG Audio\nFormat version                           : Version 1\nFormat profile                           : Layer 3\nMode                                     : Joint stereo\nMode extension                           : MS Stereo\nCodec ID                                 : 55\nCodec ID/Hint                            : MP3\nDuration                                 : 1h 45mn\nSource duration                          : 1h 45mn\nBit rate mode                            : Constant\nBit rate                                 : 128 Kbps\nChannel(s)                               : 2 channels\nSampling rate                            : 44.1 KHz\nCompression mode                         : Lossy\nStream size                              : 97.0 MiB (7%)\nAlignment                                : Split accross interleaves\nInterleave, duration                     : 26 ms (0.65 video frame)\nWriting library                          : LAME3.98\n\n","torrent":{"xt":"urn:btih:e047dc6b25e1f7b6744f204f2f333e562108e50b","amp;dn":"The.First.Of.The.Few.1942.DVDRiP.XViD.avi-Zen_Bud","amp;tr":["udp%3A%2F%2Ftracker.openbittorrent.com%3A80","udp%3A%2F%2Fopen.demonii.com%3A1337","udp%3A%2F%2Ftracker.coppersurfer.tk%3A6969","udp%3A%2F%2Fexodus.desync.com%3A6969"],"infoHash":"e047dc6b25e1f7b6744f204f2f333e562108e50b","infoHashBuffer":{"type":"Buffer","data":[224,71,220,107,37,225,247,182,116,79,32,79,47,51,62,86,33,8,229,11]},"announce":[],"urlList":[]}}